# xmcd
#
# Track frame offsets:
#	151
#	14920
#	29848
#	52657
#	69255
#	92827
#	110924
#	123653
#	140294
#	156797
#	181174
#	195066
#	207449
#	223702
#	236934
#	248891
#	268138
#
# Disc length: 3863 seconds
#
# Revision: 0
# Processed by: cddbd v1.5.1PL2 Copyright (c) Steve Scherf et al.
# Submitted via: dBpowerAMP V4.0
#
DISCID=000f1511
DTITLE=Johnny cash - bury me not - live in new york 1996
DYEAR=2005
DGENRE=Country
TTITLE0=folsom prison blues
TTITLE1=get rhythm
TTITLE2=sunday morning coming down
TTITLE3=ghost riders in the sky
TTITLE4=cowboys prayer-/ bury me not
TTITLE5=i never picked cotton
TTITLE6=unchained
TTITLE7=rowboat
TTITLE8=rusty cage
TTITLE9=southern accent
TTITLE10=memories are made of this
TTITLE11=ring of fire
TTITLE12=i walk the line
TTITLE13=big river
TTITLE14=i still miss someone
TTITLE15=orange blossom special
TTITLE16=farside banks of jordan
EXTD=
EXTT0=
EXTT1=
EXTT2=
EXTT3=
EXTT4=
EXTT5=
EXTT6=
EXTT7=
EXTT8=
EXTT9=
EXTT10=
EXTT11=
EXTT12=
EXTT13=
EXTT14=
EXTT15=
EXTT16=
PLAYORDER=
